HIERARCHY
ROOT ui
{
	 OFFSET 0 0 0
	 CHANNELS 3 XPosition YPosition Z Position
	 EndSite
	 {
	 OFFSET 0 -1 0
	 }
}
ROOT li
{
	 OFFSET 0 0 0
	 CHANNELS 3 XPosition YPosition Z Position
	 EndSite
	 {
	 OFFSET 0 -1 0
	 }
}
ROOT ul
{
	 OFFSET 0 0 0
	 CHANNELS 3 XPosition YPosition Z Position
	 EndSite
	 {
	 OFFSET 0 -1 0
	 }
}
ROOT ll
{
	 OFFSET 0 0 0
	 CHANNELS 3 XPosition YPosition Z Position
	 EndSite
	 {
	 OFFSET 0 -1 0
	 }
}
ROOT tt
{
	 OFFSET 0 0 0
	 CHANNELS 3 XPosition YPosition Z Position
	 EndSite
	 {
	 OFFSET 0 -1 0
	 }
}
ROOT tb
{
	 OFFSET 0 0 0
	 CHANNELS 3 XPosition YPosition Z Position
	 EndSite
	 {
	 OFFSET 0 -1 0
	 }
}
ROOT td
{
	 OFFSET 0 0 0
	 CHANNELS 3 XPosition YPosition Z Position
	 EndSite
	 {
	 OFFSET 0 -1 0
	 }
}
ROOT v
{
	 OFFSET 0 0 0
	 CHANNELS 3 XPosition YPosition Z Position
	 EndSite
	 {
	 OFFSET 0 -1 0
	 }
}
ROOT bn
{
	 OFFSET 0 0 0
	 CHANNELS 3 XPosition YPosition Z Position
	 EndSite
	 {
	 OFFSET 0 -1 0
	 }
}
MOTION
Frames: 24
Frame Time: 0.002
-0.015430773735046387	0.002104401111602783	0		0.4657795104980469	-2.37000146484375	0		-0.9726226806640625	0.20577970886230468	0		-0.6089190063476563	-2.691703369140625	0		1.718247802734375	-0.6636947021484375	0		3.38771337890625	-0.29247225952148437	0		4.46923486328125	-0.47391888427734374	0		5.9892470703125	0.4974966125488281	0		-0.04371225357055664	5.9411123046875	0		
0.004130659103393555	-0.00492540693283081	0		0.5262635498046875	-2.386603271484375	0		-0.9612218017578125	0.18784278869628906	0		-0.6519612426757813	-2.67485205078125	0		1.670788818359375	-0.6727298583984375	0		3.3833125	-0.2970816650390625	0		4.4480107421875	-0.46626235961914064	0		5.98501318359375	0.5059461364746094	0		-0.17651504516601563	5.919248046875	0		
-0.019177190780639647	-3.345740139484406E-4	0		0.47204635620117186	-2.380555908203125	0		-0.9638930053710938	0.1671079864501953	0		-0.6441331787109374	-2.666722412109375	0		1.6873837890625	-0.6766553344726562	0		3.378196533203125	-0.2796439208984375	0		4.4517431640625	-0.4599186096191406	0		5.989501953125	0.4973244934082031	0		-0.21016058349609376	5.9129765625	0		
0.010468512535095216	0.0025088419914245604	0		0.5277095336914063	-2.383061767578125	0		-0.9583646850585937	0.16225625610351563	0		-0.6712380981445313	-2.653095947265625	0		1.6639755859375	-0.6789949340820313	0		3.377685791015625	-0.2882442626953125	0		4.4631103515625	-0.4776471252441406	0		5.99221630859375	0.5067796020507812	0		-0.04440018463134766	5.9388828125	0		
-0.019986274719238282	2.044519931077957E-4	0		0.4963774108886719	-2.38432861328125	0		-0.9610838012695313	0.14151405334472655	0		-0.6294945678710937	-2.65044921875	0		1.6852498779296874	-0.7029566650390625	0		3.3972958984375	-0.28710235595703126	0		4.450732421875	-0.4760037841796875	0		5.9917783203125	0.507322998046875	0		-0.19155122375488282	5.9072177734375	0		
0.00962263774871826	0.00304899001121521	0		0.5209989624023438	-2.3893857421875	0		-0.9587611083984375	0.12469136047363281	0		-0.6325466918945313	-2.63317333984375	0		1.675702392578125	-0.7134725952148437	0		3.363827392578125	-0.29019158935546874	0		4.45032666015625	-0.47550277709960936	0		5.9913212890625	0.5079046325683594	0		-0.058994140625	5.9276015625	0		
-0.024909952163696288	-0.0032124490737915038	0		0.5186592407226562	-2.392066162109375	0		-0.9294332885742187	0.10847710418701172	0		-0.624718994140625	-2.6250625	0		1.6702088623046876	-0.7200430908203125	0		3.363532958984375	-0.28073504638671876	0		4.45683203125	-0.481079345703125	0		5.9828544921875	0.5086278381347656	0		-0.1779349822998047	5.91751416015625	0		
0.0016521450281143189	-0.003342058897018433	0		0.5003079833984375	-2.396532958984375	0		-0.9541244506835938	0.09100328826904297	0		-0.681660888671875	-2.601060546875	0		1.666763671875	-0.7236458740234375	0		3.3838759765625	-0.2975635986328125	0		4.44752587890625	-0.4734220581054687	0		5.995259765625	0.5000768432617188	0		-0.21086956787109376	5.90919873046875	0		
0.011368168830871581	0.006750514984130859	0		0.5242128295898437	-2.38460107421875	0		-0.9157925415039062	0.07363091278076171	0		-0.6046500854492187	-2.582945556640625	0		1.663349365234375	-0.7262584838867188	0		3.37280859375	-0.27295123291015627	0		4.45121875	-0.4669440612792969	0		5.99891455078125	0.5086596984863281	0		-0.17761268615722656	5.9149443359375	0		
0.016804153442382813	-0.00511884593963623	0		0.49982244873046877	-2.396019287109375	0		-0.9334005737304687	0.05901335906982422	0		-0.6904263916015625	-2.550592041015625	0		1.6897803955078126	-0.7422996215820312	0		3.3431435546875	-0.2930962219238281	0		4.4467724609375	-0.47235879516601564	0		5.98949560546875	0.5104238586425781	0		-0.17941835021972657	5.91615673828125	0		
4.708999991416931E-4	-0.00271138596534729	0		0.5156781616210937	-2.393015625	0		-0.9350560302734375	0.03814605712890625	0		-0.6444932861328125	-2.54308984375	0		1.6474495849609374	-0.7434097900390625	0		3.3369130859375	-0.2845787353515625	0		4.4344462890625	-0.47167584228515624	0		5.98909521484375	0.5110569458007812	0		-0.19438557434082032	5.9045234375	0		
1.503770053386688E-4	-0.0025537519454956054	0		0.4595889892578125	-2.38905322265625	0		-0.9726495361328125	0.018738590240478515	0		-0.68132666015625	-2.521478515625	0		1.705579833984375	-0.7879265747070312	0		3.3594619140625	-0.29547589111328126	0		4.4431201171875	-0.4742974548339844	0		5.98873486328125	0.5116784362792969	0		-0.06186182403564453	5.9258466796875	0		
0.008754571914672852	-0.011549671173095704	0		0.5332286987304687	-2.409894287109375	0		-0.980140625	0.002882806062698364	0		-0.6671954956054688	-2.50659912109375	0		1.6502799072265626	-0.7939169921875	0		3.334541015625	-0.27074432373046875	0		4.43498095703125	-0.4667085266113281	0		5.99352880859375	0.52021435546875	0		-0.18076092529296875	5.91557080078125	0		
0.002697920083999634	6.223610043525696E-4	0		0.46150946044921876	-2.386789306640625	0		-0.9725372314453125	-0.01021286106109619	0		-0.6717509155273438	-2.472497802734375	0		1.6660693359375	-0.7979060668945313	0		3.326087158203125	-0.28927011108398437	0		4.4406767578125	-0.4753341369628906	0		5.98815869140625	0.51286474609375	0		-0.2145569610595703	5.90909375	0		
0.006587719917297364	0.004625126838684082	0		0.5202973022460937	-2.405484375	0		-0.9799138793945312	-0.02614166259765625	0		-0.6714541625976562	-2.453498779296875	0		1.6437593994140625	-0.8134146118164063	0		3.3410537109375	-0.28113943481445314	0		4.42755419921875	-0.47473452758789064	0		5.98795263671875	0.5134183959960937	0		-0.2104260711669922	5.89306689453125	0		
0.0082695951461792	-0.011378008842468262	0		0.49239645385742187	-2.4050458984375	0		-0.9352066040039062	-0.04080070495605469	0		-0.6632341918945313	-2.444640869140625	0		1.705370849609375	-0.8400801391601562	0		3.33384033203125	-0.29074462890625	0		4.4274892578125	-0.47434320068359376	0		5.9968046875	0.5138200073242187	0		-0.06358214950561523	5.92510791015625	0		
-6.532920002937317E-4	-0.0022720279693603514	0		0.518524169921875	-2.4073623046875	0		-0.9754025268554688	-0.05236072540283203	0		-0.7018192138671875	-2.425194091796875	0		1.64338916015625	-0.8401295776367188	0		3.28995703125	-0.27989791870117187	0		4.41957861328125	-0.4668821105957031	0		5.98771875	0.5144257202148438	0		-0.19642608642578124	5.90284033203125	0		
-6.367080211639404E-4	-0.002318751096725464	0		0.47468939208984373	-2.410786865234375	0		-0.9694482421875	-0.057566070556640626	0		-0.6456348876953125	-2.42803564453125	0		1.669380126953125	-0.847383056640625	0		3.33570263671875	-0.3022782287597656	0		4.43447412109375	-0.4787623291015625	0		5.99690283203125	0.5307508544921875	0		-0.21385345458984376	5.9060009765625	0		
0.01945063018798828	-0.001658566951751709	0		0.5329525756835938	-2.4115859375	0		-0.954329833984375	-0.05491791534423828	0		-0.723096923828125	-2.407145751953125	0		1.649538330078125	-0.8460661010742188	0		3.311118896484375	-0.27776483154296877	0		4.4287060546875	-0.4694086608886719	0		5.99693603515625	0.5311514282226563	0		-0.21622254943847657	5.90793212890625	0		
0.0066628379821777346	0.004405241012573242	0		0.5193231811523438	-2.4074697265625	0		-0.9614003295898438	-0.07100479888916016	0		-0.6549287719726562	-2.41919140625	0		1.669369873046875	-0.8743041381835938	0		3.30597412109375	-0.3005509033203125	0		4.4199150390625	-0.46605941772460935	0		5.99604150390625	0.5325167236328125	0		-0.19760820007324217	5.9025625	0		
-2.4187199771404265E-4	-0.0026349260807037355	0		0.5255145263671875	-2.420640380859375	0		-0.9652610473632812	-0.07515419006347657	0		-0.7284969482421875	-2.41341357421875	0		1.6474136962890624	-0.8900289306640625	0		3.3002724609375	-0.2933660888671875	0		4.42601708984375	-0.4749477844238281	0		5.99208544921875	0.5248718872070313	0		-0.21297848510742187	5.892611328125	0		
-9.66699980199337E-6	-0.002789376974105835	0		0.49691339111328126	-2.4203857421875	0		-0.9650238647460937	-0.07537420654296875	0		-0.6541714477539062	-2.419569580078125	0		1.6616148681640626	-0.8972510986328125	0		3.29524169921875	-0.3152301025390625	0		4.41328271484375	-0.47463418579101563	0		5.99326904296875	0.5241117553710938	0		-0.2131468200683594	5.8924423828125	0		
2.6199400424957274E-4	-0.002963357925415039	0		0.4724036560058594	-2.415208740234375	0		-0.9647476196289062	-0.07560906219482422	0		-0.7486626586914062	-2.412568359375	0		1.6288817138671876	-0.9018971557617188	0		3.27490625	-0.28592959594726564	0		4.41155859375	-0.47650396728515626	0		6.00560888671875	0.5321614990234375	0		-0.19812020874023437	5.90206201171875	0		
0.010692561149597168	0.00671833086013794	0		0.50184521484375	-2.415740966796875	0		-0.9644395751953125	-0.07585507965087891	0		-0.7191192626953125	-2.40517236328125	0		1.643134521484375	-0.9101704711914063	0		3.29585498046875	-0.3151949157714844	0		4.41189013671875	-0.4764378967285156	0		5.99709912109375	0.5494334716796875	0		-0.1991462860107422	5.902873046875	0		
